<svg width="17" height="17" viewBox="0 0 17 17" fill="none" xmlns="http://www.w3.org/2000/svg">
<path d="M8.29517 6.23797C7.8883 6.23797 7.49056 6.35862 7.15225 6.58467C6.81395 6.81072 6.55027 7.13201 6.39457 7.50792C6.23886 7.88382 6.19812 8.29746 6.2775 8.69651C6.35688 9.09557 6.55281 9.46213 6.84051 9.74984C7.12822 10.0375 7.49478 10.2335 7.89383 10.3128C8.29289 10.3922 8.70653 10.3515 9.08243 10.1958C9.45834 10.0401 9.77963 9.7764 10.0057 9.43809C10.2317 9.09979 10.3524 8.70205 10.3524 8.29517C10.3524 8.02502 10.2992 7.75751 10.1958 7.50792C10.0924 7.25832 9.94086 7.03154 9.74984 6.84051C9.55881 6.64948 9.33202 6.49795 9.08243 6.39457C8.83284 6.29118 8.56533 6.23797 8.29517 6.23797V6.23797ZM16.5323 4.20565C16.5279 3.56507 16.41 2.93033 16.1839 2.33094C16.0174 1.89234 15.7598 1.49404 15.428 1.16231C15.0963 0.830576 14.698 0.572962 14.2594 0.406464C13.66 0.18039 13.0253 0.0624302 12.3847 0.0580662C11.3146 -5.56235e-08 10.9994 0 8.29517 0C5.59095 0 5.27573 -5.56235e-08 4.20565 0.0580662C3.56507 0.0624302 2.93033 0.18039 2.33094 0.406464C1.89234 0.572962 1.49404 0.830576 1.16231 1.16231C0.830576 1.49404 0.572962 1.89234 0.406464 2.33094C0.18039 2.93033 0.0624302 3.56507 0.0580662 4.20565C-5.56235e-08 5.27573 0 5.59095 0 8.29517C0 10.9994 -5.56235e-08 11.3146 0.0580662 12.3847C0.066995 13.0275 0.184795 13.6642 0.406464 14.2677C0.572224 14.7043 0.829624 15.1003 1.16132 15.429C1.49163 15.7627 1.89079 16.0204 2.33094 16.1839C2.93033 16.41 3.56507 16.5279 4.20565 16.5323C5.27573 16.5903 5.59095 16.5903 8.29517 16.5903C10.9994 16.5903 11.3146 16.5903 12.3847 16.5323C13.0253 16.5279 13.66 16.41 14.2594 16.1839C14.6996 16.0204 15.0987 15.7627 15.429 15.429C15.7607 15.1003 16.0181 14.7043 16.1839 14.2677C16.4097 13.6654 16.5277 13.028 16.5323 12.3847C16.5903 11.3146 16.5903 10.9994 16.5903 8.29517C16.5903 5.59095 16.5903 5.27573 16.5323 4.20565V4.20565ZM14.4253 10.8418C14.3987 11.3537 14.2894 11.8579 14.1018 12.3349C13.9408 12.7328 13.7014 13.0943 13.3978 13.3978C13.0943 13.7014 12.7328 13.9408 12.3349 14.1018C11.8534 14.279 11.3464 14.377 10.8335 14.3921C10.1782 14.3921 10.004 14.3921 8.29517 14.3921C6.58637 14.3921 6.41217 14.3921 5.75685 14.3921C5.24398 14.377 4.73695 14.279 4.25542 14.1018C3.84407 13.9489 3.47259 13.7051 3.16876 13.3884C2.86819 13.0908 2.63608 12.7313 2.48855 12.3349C2.31067 11.8539 2.21531 11.3463 2.20652 10.8335C2.20652 10.1782 2.20652 10.004 2.20652 8.29517C2.20652 6.58637 2.20652 6.41217 2.20652 5.75685C2.21531 5.24406 2.31067 4.73645 2.48855 4.25542C2.64142 3.84407 2.88529 3.47259 3.20194 3.16876C3.50084 2.86982 3.85996 2.63794 4.25542 2.48855C4.73695 2.31137 5.24398 2.21333 5.75685 2.19822V2.19822C6.41217 2.19822 6.58637 2.19822 8.29517 2.19822C10.004 2.19822 10.1782 2.19822 10.8335 2.19822C11.3464 2.21333 11.8534 2.31137 12.3349 2.48855C12.7463 2.64142 13.1178 2.88529 13.4216 3.20194C13.7222 3.49953 13.9543 3.85902 14.1018 4.25542C14.279 4.73695 14.377 5.24398 14.3921 5.75685C14.3921 6.41217 14.3921 6.58637 14.3921 8.29517C14.3921 10.004 14.4502 10.1782 14.4253 10.8335V10.8418ZM13.0981 4.67018C12.9993 4.40224 12.8436 4.1589 12.6417 3.95698C12.4397 3.75505 12.1964 3.59933 11.9285 3.50056C11.5605 3.37303 11.1731 3.31126 10.7837 3.31807C10.1367 3.31807 9.95421 3.31807 8.29517 3.31807C6.63614 3.31807 6.45365 3.31807 5.80662 3.31807C5.41531 3.32189 5.02776 3.39491 4.66189 3.53374C4.39804 3.62802 4.15729 3.77738 3.95562 3.9719C3.75396 4.16641 3.59601 4.40162 3.49227 4.66189C3.3718 5.03133 3.31295 5.41807 3.31807 5.80662C3.31807 6.45365 3.31807 6.63614 3.31807 8.29517C3.31807 9.95421 3.31807 10.1367 3.31807 10.7837C3.32629 11.1746 3.39917 11.5614 3.53374 11.9285C3.63251 12.1964 3.78823 12.4397 3.99016 12.6417C4.19208 12.8436 4.43542 12.9993 4.70336 13.0981C5.05729 13.2282 5.42973 13.301 5.80662 13.3138V13.3138C6.45365 13.3138 6.63614 13.3138 8.29517 13.3138C9.95421 13.3138 10.1367 13.3138 10.7837 13.3138C11.175 13.3099 11.5626 13.2369 11.9285 13.0981C12.1964 12.9993 12.4397 12.8436 12.6417 12.6417C12.8436 12.4397 12.9993 12.1964 13.0981 11.9285C13.2369 11.5626 13.3099 11.175 13.3138 10.7837C13.3138 10.1367 13.3138 9.95421 13.3138 8.29517C13.3138 6.63614 13.3138 6.45365 13.3138 5.80662C13.314 5.41492 13.2408 5.02664 13.0981 4.66189V4.67018ZM8.29517 11.4639C7.87944 11.4639 7.46778 11.3819 7.0838 11.2226C6.69981 11.0632 6.35104 10.8297 6.05745 10.5353C5.76387 10.241 5.53124 9.89158 5.3729 9.50718C5.21456 9.12277 5.13362 8.71091 5.13471 8.29517V8.29517C5.13471 7.6681 5.32077 7.05513 5.66933 6.53385C6.01788 6.01257 6.51326 5.60643 7.09276 5.36684C7.67226 5.12725 8.30982 5.06498 8.92472 5.18792C9.53962 5.31087 10.1042 5.61348 10.5471 6.05747C10.9899 6.50146 11.291 7.06686 11.4123 7.68208C11.5337 8.2973 11.4697 8.93469 11.2286 9.51356C10.9875 10.0924 10.5801 10.5867 10.0579 10.9339C9.53571 11.2811 8.92225 11.4656 8.29517 11.4639V11.4639ZM11.6132 5.74856C11.4299 5.72915 11.2602 5.64256 11.1368 5.50548C11.0135 5.3684 10.9453 5.19053 10.9453 5.00614C10.9453 4.82174 11.0135 4.64387 11.1368 4.50679C11.2602 4.36971 11.4299 4.28313 11.6132 4.26372V4.26372C11.7966 4.28313 11.9663 4.36971 12.0896 4.50679C12.213 4.64387 12.2812 4.82174 12.2812 5.00614C12.2812 5.19053 12.213 5.3684 12.0896 5.50548C11.9663 5.64256 11.7966 5.72915 11.6132 5.74856Z" fill="black"/>
</svg>
