<svg width="17" height="17" viewBox="0 0 17 17" fill="none" xmlns="http://www.w3.org/2000/svg">
<path d="M15.2714 0.000115992H1.21939C1.06143 -0.00207777 0.904589 0.0268659 0.757819 0.085294C0.611048 0.143722 0.477224 0.23049 0.36399 0.340643C0.250756 0.450796 0.16033 0.582175 0.0978764 0.727279C0.0354224 0.872382 0.00216371 1.02837 0 1.18633V15.4043C0.00216371 15.5622 0.0354224 15.7182 0.0978764 15.8633C0.16033 16.0084 0.250756 16.1398 0.36399 16.2499C0.477224 16.3601 0.611048 16.4469 0.757819 16.5053C0.904589 16.5637 1.06143 16.5927 1.21939 16.5905H15.2714C15.4294 16.5927 15.5862 16.5637 15.733 16.5053C15.8798 16.4469 16.0136 16.3601 16.1268 16.2499C16.24 16.1398 16.3305 16.0084 16.3929 15.8633C16.4554 15.7182 16.4886 15.5622 16.4908 15.4043V1.18633C16.4886 1.02837 16.4554 0.872382 16.3929 0.727279C16.3305 0.582175 16.24 0.450796 16.1268 0.340643C16.0136 0.23049 15.8798 0.143722 15.733 0.085294C15.5862 0.0268659 15.4294 -0.00207777 15.2714 0.000115992V0.000115992ZM5.00199 13.8862H2.51344V6.42058H5.00199V13.8862ZM3.75771 5.37539C3.41451 5.37539 3.08536 5.23905 2.84268 4.99637C2.6 4.75369 2.46367 4.42454 2.46367 4.08134C2.46367 3.73814 2.6 3.40899 2.84268 3.16631C3.08536 2.92363 3.41451 2.78729 3.75771 2.78729C3.93996 2.76663 4.12451 2.78468 4.29928 2.84029C4.47406 2.89589 4.63513 2.98778 4.77193 3.10994C4.90873 3.23211 5.01819 3.38179 5.09313 3.54919C5.16807 3.71659 5.20681 3.89793 5.20681 4.08134C5.20681 4.26475 5.16807 4.44609 5.09313 4.61349C5.01819 4.78089 4.90873 4.93057 4.77193 5.05274C4.63513 5.1749 4.47406 5.26679 4.29928 5.3224C4.12451 5.378 3.93996 5.39606 3.75771 5.37539V5.37539ZM13.9774 13.8862H11.4888V9.87967C11.4888 8.87595 11.1321 8.22063 10.2279 8.22063C9.94812 8.22268 9.67565 8.31045 9.44724 8.47212C9.21883 8.63379 9.04546 8.86158 8.95049 9.12481C8.88558 9.31978 8.85745 9.52511 8.86754 9.73035V13.8779H6.37899C6.37899 13.8779 6.37899 7.09249 6.37899 6.41228H8.86754V7.46577C9.09361 7.0735 9.42241 6.75033 9.81853 6.53107C10.2147 6.31182 10.6631 6.20478 11.1155 6.2215C12.7746 6.2215 13.9774 7.29157 13.9774 9.58934V13.8862Z" fill="black"/>
</svg>
