<svg width="24" height="17" viewBox="0 0 24 17" fill="none" xmlns="http://www.w3.org/2000/svg">
<path d="M9.79902 12.0367L15.6745 8.64046L9.79902 5.24424V12.0367ZM22.8858 3.17254C23.033 3.70462 23.1348 4.41782 23.2028 5.32348C23.282 6.22914 23.316 7.01027 23.316 7.68952L23.3839 8.64046C23.3839 11.1197 23.2028 12.9423 22.8858 14.1084C22.6028 15.1272 21.9462 15.7838 20.9273 16.0669C20.3952 16.214 19.4216 16.3159 17.9273 16.3838C16.4556 16.4631 15.1084 16.497 13.8632 16.497L12.0632 16.565C7.31978 16.565 4.36507 16.3838 3.19903 16.0669C2.18017 15.7838 1.52356 15.1272 1.24054 14.1084C1.09337 13.5763 0.991488 12.8631 0.923564 11.9574C0.844318 11.0518 0.810356 10.2706 0.810356 9.5914L0.742432 8.64046C0.742432 6.16122 0.923563 4.33858 1.24054 3.17254C1.52356 2.15368 2.18017 1.49707 3.19903 1.21405C3.73111 1.06689 4.70469 0.964998 6.19903 0.897074C7.67072 0.817829 9.01789 0.783867 10.2632 0.783867L12.0632 0.715942C16.8066 0.715942 19.7613 0.897074 20.9273 1.21405C21.9462 1.49707 22.6028 2.15368 22.8858 3.17254Z" fill="black"/>
</svg>
